{
  "accessors": [
    {
      "bufferView": 2,
      "componentType": 5126,
      "count": 44,
      "max": [
        4.439613342285156,
        99.34203338623047,
        0.19605639576911926
      ],
      "min": [
        -241.31629943847656,
        -0.447479248046875,
        -70.53387451171875
      ],
      "type": "VEC3"
    },
    {
      "bufferView": 2,
      "byteOffset": 528,
      "componentType": 5126,
      "count": 44,
      "max": [
        4.645688022719696e-06,
        5.960464477539063e-08,
        1.0
      ],
      "min": [
        0.0,
        -0.9659261107444763,
        -0.7660456895828247
      ],
      "type": "VEC3"
    },
    {
      "bufferView": 3,
      "componentType": 5126,
      "count": 44,
      "max": [
        1.0,
        7.463310794264544e-06,
        0.0,
        1.0
      ],
      "min": [
        1.0,
        -5.960474425137363e-08,
        -2.22447695819028e-07,
        1.0
      ],
      "type": "VEC4"
    },
    {
      "bufferView": 1,
      "componentType": 5126,
      "count": 44,
      "max": [
        1.0,
        1.0
      ],
      "min": [
        0.0,
        0.0
      ],
      "type": "VEC2"
    },
    {
      "bufferView": 1,
      "byteOffset": 352,
      "componentType": 5126,
      "count": 44,
      "max": [
        1.0,
        1.0
      ],
      "min": [
        0.0,
        0.0
      ],
      "type": "VEC2"
    },
    {
      "bufferView": 1,
      "byteOffset": 704,
      "componentType": 5126,
      "count": 44,
      "max": [
        1.0,
        1.0
      ],
      "min": [
        0.0,
        0.0
      ],
      "type": "VEC2"
    },
    {
      "bufferView": 0,
      "componentType": 5125,
      "count": 66,
      "type": "SCALAR"
    },
    {
      "bufferView": 2,
      "byteOffset": 1056,
      "componentType": 5126,
      "count": 164,
      "max": [
        0.8393749594688416,
        1.4171876907348633,
        0.20263846218585968
      ],
      "min": [
        -0.30010858178138733,
        -1.401276707649231,
        -0.5297715067863464
      ],
      "type": "VEC3"
    },
    {
      "bufferView": 2,
      "byteOffset": 3024,
      "componentType": 5126,
      "count": 164,
      "max": [
        0.999940037727356,
        1.0,
        0.9659356474876404
      ],
      "min": [
        -1.0,
        -1.0,
        -0.9659361839294434
      ],
      "type": "VEC3"
    },
    {
      "bufferView": 3,
      "byteOffset": 704,
      "componentType": 5126,
      "count": 164,
      "max": [
        0.9659361839294434,
        1.0,
        0.9999400973320007,
        1.0
      ],
      "min": [
        -0.9659255743026733,
        -1.6488962501171045e-05,
        -0.9999393820762634,
        1.0
      ],
      "type": "VEC4"
    },
    {
      "bufferView": 1,
      "byteOffset": 1056,
      "componentType": 5126,
      "count": 164,
      "max": [
        0.9835544228553772,
        0.9999357461929321
      ],
      "min": [
        6.423890590667725e-05,
        6.42538070678711e-05
      ],
      "type": "VEC2"
    },
    {
      "bufferView": 1,
      "byteOffset": 2368,
      "componentType": 5126,
      "count": 164,
      "max": [
        0.9835544228553772,
        0.9999357461929321
      ],
      "min": [
        6.423890590667725e-05,
        6.42538070678711e-05
      ],
      "type": "VEC2"
    },
    {
      "bufferView": 0,
      "byteOffset": 264,
      "componentType": 5125,
      "count": 294,
      "type": "SCALAR"
    }
  ],
  "asset": {
    "extras": {
      "author": "Konstantin Koretskyi (https://sketchfab.com/cgnoobmaster)",
      "license": "CC-BY-4.0 (http://creativecommons.org/licenses/by/4.0/)",
      "source": "https://sketchfab.com/3d-models/rain-canopy-over-windows-6a96d3a0d9f2464f9c698dafa356ab54",
      "title": "Rain canopy over windows"
    },
    "generator": "Sketchfab-12.68.0",
    "version": "2.0"
  },
  "bufferViews": [
    {
      "buffer": 0,
      "byteLength": 1440,
      "name": "floatBufferViews",
      "target": 34963
    },
    {
      "buffer": 0,
      "byteLength": 3680,
      "byteOffset": 1440,
      "byteStride": 8,
      "name": "floatBufferViews",
      "target": 34962
    },
    {
      "buffer": 0,
      "byteLength": 4992,
      "byteOffset": 5120,
      "byteStride": 12,
      "name": "floatBufferViews",
      "target": 34962
    },
    {
      "buffer": 0,
      "byteLength": 3328,
      "byteOffset": 10112,
      "byteStride": 16,
      "name": "floatBufferViews",
      "target": 34962
    }
  ],
  "buffers": [
    {
      "byteLength": 13440,
      "uri": "scene.bin"
    }
  ],
  "images": [
    {
      "uri": "textures/bolt_baseColor.png"
    },
    {
      "uri": "textures/bolt_metallicRoughness.png"
    },
    {
      "uri": "textures/bolt_normal.png"
    },
    {
      "uri": "textures/otliv_baseColor.png"
    },
    {
      "uri": "textures/otliv_metallicRoughness.png"
    },
    {
      "uri": "textures/otliv_normal.png"
    }
  ],
  "materials": [
    {
      "alphaMode": "BLEND",
      "doubleSided": true,
      "name": "bolt",
      "normalTexture": {
        "index": 2
      },
      "occlusionTexture": {
        "index": 1
      },
      "pbrMetallicRoughness": {
        "baseColorTexture": {
          "index": 0
        },
        "metallicRoughnessTexture": {
          "index": 1
        }
      }
    },
    {
      "doubleSided": true,
      "name": "otliv",
      "normalTexture": {
        "index": 5
      },
      "pbrMetallicRoughness": {
        "baseColorTexture": {
          "index": 3
        },
        "metallicRoughnessTexture": {
          "index": 4
        }
      }
    }
  ],
  "meshes": [
    {
      "name": "bolt.normal.alpha.010_bolt_0",
      "primitives": [
        {
          "attributes": {
            "NORMAL": 1,
            "POSITION": 0,
            "TANGENT": 2,
            "TEXCOORD_0": 3,
            "TEXCOORD_1": 4,
            "TEXCOORD_2": 5
          },
          "indices": 6,
          "material": 0,
          "mode": 4
        }
      ]
    },
    {
      "name": "profile.002_otliv_0",
      "primitives": [
        {
          "attributes": {
            "NORMAL": 8,
            "POSITION": 7,
            "TANGENT": 9,
            "TEXCOORD_0": 10,
            "TEXCOORD_1": 11
          },
          "indices": 12,
          "material": 1,
          "mode": 4
        }
      ]
    }
  ],
  "nodes": [
    {
      "children": [
        1
      ],
      "matrix": [
        1.0,
        0.0,
        0.0,
        0.0,
        0.0,
        2.220446049250313e-16,
        -1.0,
        0.0,
        0.0,
        1.0,
        2.220446049250313e-16,
        0.0,
        0.0,
        0.0,
        0.0,
        1.0
      ],
      "name": "Sketchfab_model"
    },
    {
      "children": [
        2
      ],
      "matrix": [
        1.0,
        0.0,
        0.0,
        0.0,
        0.0,
        0.0,
        1.0,
        0.0,
        0.0,
        -1.0,
        0.0,
        0.0,
        0.0,
        0.0,
        0.0,
        1.0
      ],
      "name": "10c556f27a5a40138e791a124b973982.fbx"
    },
    {
      "children": [
        3,
        5
      ],
      "name": "RootNode"
    },
    {
      "children": [
        4
      ],
      "matrix": [
        7.398794743796639e-08,
        5.4400932574146305e-17,
        -0.9800000786781284,
        0.0,
        -0.9466073467453683,
        0.25364306046479795,
        -7.146686633946408e-08,
        0.0,
        0.2536430604647974,
        0.946607346745371,
        1.9149518288659492e-08,
        0.0,
        43.89096450805664,
        -1.0283719301223755,
        -117.73915100097656,
        1.0
      ],
      "name": "bolt.normal.alpha.010"
    },
    {
      "mesh": 0,
      "name": "bolt.normal.alpha.010_bolt_0"
    },
    {
      "children": [
        6
      ],
      "matrix": [
        100.0,
        0.0,
        0.0,
        0.0,
        -0.0,
        -1.629206793918314e-05,
        -99.99999999999868,
        0.0,
        0.0,
        99.99999999999868,
        -1.629206793918314e-05,
        0.0,
        -21.80301284790039,
        4.2896223068237305,
        -0.8799514770507813,
        1.0
      ],
      "name": "profile.002"
    },
    {
      "mesh": 1,
      "name": "profile.002_otliv_0"
    }
  ],
  "samplers": [
    {
      "magFilter": 9729,
      "minFilter": 9987,
      "wrapS": 10497,
      "wrapT": 10497
    }
  ],
  "scene": 0,
  "scenes": [
    {
      "name": "Sketchfab_Scene",
      "nodes": [
        0
      ]
    }
  ],
  "textures": [
    {
      "sampler": 0,
      "source": 0
    },
    {
      "sampler": 0,
      "source": 1
    },
    {
      "sampler": 0,
      "source": 2
    },
    {
      "sampler": 0,
      "source": 3
    },
    {
      "sampler": 0,
      "source": 4
    },
    {
      "sampler": 0,
      "source": 5
    }
  ]
}
